HIERARCHY
ROOT Hips
{
	OFFSET 0.00000 0.00000 0.00000
	CHANNELS 6 Xposition Yposition Zposition Zrotation Yrotation Xrotation 
	JOINT RightUpLegDummy
	{
		OFFSET 0 0 0
		CHANNELS 3 Zrotation Yrotation Xrotation
		JOINT RightUpLeg
		{
			OFFSET -3.52197 -3.41223 0.04002
			CHANNELS 3 Zrotation Yrotation Xrotation
			JOINT RightLeg
			{
				OFFSET 0.00006 -17.42390 1.60435
				CHANNELS 3 Zrotation Yrotation Xrotation
				JOINT RightFoot
				{
					OFFSET 0.06153 -16.50078 -1.63901
					CHANNELS 3 Zrotation Yrotation Xrotation
					JOINT RightToes
					{
						OFFSET 0.00298 -1.73825 3.34613
						CHANNELS 3 Zrotation Yrotation Xrotation
						End Site
						{
							OFFSET 0.00480 -0.05416 3.85043
						}
					}
				}
			}
		}
	}
	JOINT SpineDummy
	{
		OFFSET 0 0 0
		CHANNELS 3 Zrotation Yrotation Xrotation
		JOINT Spine
		{
			OFFSET 0.00000 4.68130 0.00000
			CHANNELS 3 Zrotation Yrotation Xrotation
			JOINT Spine1
			{
				OFFSET -0.00000 10.10138 0.05002
				CHANNELS 3 Zrotation Yrotation Xrotation
				JOINT HEadDummy
				{
					OFFSET 0 0 0
					CHANNELS 3 Zrotation Yrotation Xrotation
					JOINT Head
					{
						OFFSET -0.00000 3.43865 0.00438
						CHANNELS 3 Zrotation Yrotation Xrotation
						End Site
						{
							OFFSET -0.11417 5.02924 0.98962
						}
					}
				}
				JOINT LeftShoulder1Dummy
				{
					OFFSET 0 0 0
					CHANNELS 3 Zrotation Yrotation Xrotation
					JOINT LeftShoulder1
					{
						OFFSET 3.53937 -0.14262 -0.08662
						CHANNELS 3 Zrotation Yrotation Xrotation
						JOINT LeftArm
						{
							OFFSET 4.04833 -0.00133 0.12681
							CHANNELS 3 Zrotation Yrotation Xrotation
							JOINT LeftForeArm
							{
								OFFSET 10.33880 -0.01036 -0.55515
								CHANNELS 3 Zrotation Yrotation Xrotation
								JOINT LeftHand
								{
									OFFSET 8.69677 0.07543 0.40060
									CHANNELS 3 Zrotation Yrotation Xrotation
									End Site
									{
										OFFSET 5.28377 -0.21905 0.59205
									}
								}
							}
						}
					}
				}
				JOINT RightShoulderDummy
				{
					OFFSET 0 0 0
					CHANNELS 3 Zrotation Yrotation Xrotation
					JOINT RightShoulder
					{
						OFFSET -3.53937 -0.14262 -0.08660
						CHANNELS 3 Zrotation Yrotation Xrotation
						JOINT RightArm
						{
							OFFSET -4.04833 -0.00133 0.12683
							CHANNELS 3 Zrotation Yrotation Xrotation
							JOINT RightForeArm
							{
								OFFSET -10.37987 -0.01039 -0.55511
								CHANNELS 3 Zrotation Yrotation Xrotation
								JOINT RightHand
								{
									OFFSET -8.67398 0.07538 0.40058
									CHANNELS 3 Zrotation Yrotation Xrotation
									End Site
									{
										OFFSET -5.24810 -0.21916 0.59204
									}
								}
							}
						}
					}
				}
			}
		}
	}
	JOINT LeftUpLegDummy
	{
		OFFSET 0 0 0
		CHANNELS 3 Zrotation Yrotation Xrotation
		JOINT LeftUpLeg
		{
			OFFSET 3.52197 -3.41223 0.04002
			CHANNELS 3 Zrotation Yrotation Xrotation
			JOINT LeftLeg
			{
				OFFSET -0.00012 -17.42399 1.60337
				CHANNELS 3 Zrotation Yrotation Xrotation
				JOINT LeftFoot
				{
					OFFSET -0.09972 -16.50070 -1.63802
					CHANNELS 3 Zrotation Yrotation Xrotation
					JOINT LeftToes
					{
						OFFSET -0.01575 -1.73823 3.34611
						CHANNELS 3 Zrotation Yrotation Xrotation
						End Site
						{
							OFFSET 0.03150 -0.01868 3.85031
						}
					}
				}
			}
		}
	}
}
MOTION
Frames: 14
Frame Time: 0.033333
3.1583 38.6817 -14.8351 -136.4240 -84.2350 128.4960 0.0000 0.0000 0.0000 3.9149 -2.6975 -1.7550 -4.5549 -11.4974 22.8753 1.0885 -0.0386 -11.9483 0.0000 -0.0000 0.0000 0.0000 0.0000 0.0000 3.6702 1.6417 11.4067 -0.1366 1.8934 -2.1562 -0.0000 0.0000 -0.0000 -4.9009 6.0764 2.4777 -0.0000 0.0000 -0.0000 -34.0624 -2.6019 2.4480 -42.4595 -12.5052 -17.9304 -11.2993 5.2623 34.9983 13.0729 -4.1546 -1.0422 -0.0000 0.0000 -0.0000 33.5958 4.9666 3.3545 33.1783 7.7277 -17.3185 10.8593 -0.5558 20.6195 -11.3158 1.5272 -0.6614 0.0000 0.0000 0.0000 1.5099 8.6327 -15.8914 6.9365 4.4480 50.0625 7.4124 -0.1612 -8.1097 0.0000 0.0000 -0.0000
2.3392 38.7500 -14.9873 -122.6810 -85.7464 114.7800 0.0000 0.0000 0.0000 3.6421 -2.9485 0.1331 -5.1619 -12.8902 22.1845 1.3865 -0.0299 -12.8035 0.0000 -0.0000 0.0000 0.0000 0.0000 0.0000 3.3645 1.8571 11.1779 -0.3700 2.1557 -1.7459 -0.0000 0.0000 -0.0000 -4.9303 6.3484 1.8754 -0.0000 0.0000 -0.0000 -34.2807 -2.5622 2.4455 -43.0954 -12.5813 -16.9391 -11.6878 4.1929 33.7259 13.4050 -4.3924 -1.0956 -0.0000 0.0000 -0.0000 33.3651 4.9375 3.3234 32.3836 8.9616 -17.4310 10.8246 -0.4315 20.4258 -11.5579 1.5268 -0.6759 0.0000 0.0000 0.0000 0.2561 9.5113 -17.3013 7.5584 6.2693 43.4165 7.3786 -0.1745 -7.8947 0.0000 0.0000 -0.0000
1.5461 38.8605 -15.0829 -98.4465 -86.7044 90.6282 0.0000 0.0000 0.0000 3.5711 -2.9925 2.2449 -5.8786 -14.7199 20.7738 1.5392 -0.0258 -13.0148 0.0000 -0.0000 0.0000 0.0000 0.0000 0.0000 3.1540 1.9816 11.1026 -0.6435 2.3359 -1.5809 -0.0000 0.0000 -0.0000 -4.9128 6.6739 1.3908 -0.0000 0.0000 -0.0000 -34.4041 -2.5563 2.4507 -43.7441 -12.6489 -16.5107 -11.7505 3.3319 33.7814 13.6826 -4.8338 -1.1680 -0.0000 0.0000 -0.0000 33.1192 4.9004 3.2880 31.8835 10.0380 -17.5555 10.7692 -0.2731 20.2627 -11.7307 1.5844 -0.6916 0.0000 0.0000 0.0000 -0.9393 10.2244 -18.0225 7.8169 8.5786 35.6315 7.3783 -0.2628 -6.6565 0.0000 0.0000 -0.0000
0.7734 38.9854 -15.1262 -70.9620 -86.7476 63.2668 0.0000 0.0000 0.0000 3.6528 -2.9769 4.4568 -6.3606 -16.6109 18.9173 1.6533 -0.0248 -12.9471 0.0000 -0.0000 0.0000 0.0000 0.0000 0.0000 3.1772 2.1495 11.1027 -1.0387 2.5918 -1.5401 -0.0000 0.0000 -0.0000 -4.8426 6.7667 1.1028 -0.0000 0.0000 -0.0000 -34.4464 -2.6043 2.4727 -44.3496 -12.7430 -16.6189 -11.5626 3.5127 34.5589 13.8860 -5.0425 -1.2096 -0.0000 0.0000 -0.0000 33.0100 4.8827 3.2718 31.4843 10.7999 -17.4877 10.7910 0.1079 19.8409 -11.7758 1.7081 -0.7060 0.0000 0.0000 0.0000 -2.1552 12.0331 -18.0204 6.8460 10.2123 26.8281 7.6750 -0.3684 -5.3693 0.0000 0.0000 -0.0000
0.0011 39.1117 -15.1180 -53.4617 -86.1740 45.9785 0.0000 0.0000 0.0000 3.8469 -2.9536 6.7495 -6.2905 -18.1855 16.5084 1.7758 -0.0262 -12.6826 0.0000 -0.0000 0.0000 0.0000 0.0000 0.0000 3.4146 2.3699 10.8652 -1.4301 2.9039 -1.3140 -0.0000 0.0000 -0.0000 -4.7413 6.6054 0.9478 -0.0000 0.0000 -0.0000 -34.5318 -2.6745 2.5064 -44.7790 -12.7861 -17.1558 -11.2485 4.3789 35.2868 14.3962 -4.9591 -1.2464 -0.0000 0.0000 -0.0000 32.9585 4.8809 3.2668 31.1888 11.4508 -17.2648 10.8695 0.5636 19.3360 -11.6671 1.8209 -0.7098 0.0000 0.0000 0.0000 -3.2325 14.5668 -17.4251 4.9014 11.1865 17.6232 7.5352 -0.4121 -4.6610 0.0000 0.0000 -0.0000
-0.7725 39.2413 -15.0562 -44.7327 -85.4158 37.6117 0.0000 0.0000 0.0000 4.1184 -2.9104 9.0604 -5.7779 -19.5826 13.5420 1.7532 -0.0343 -11.9947 0.0000 -0.0000 0.0000 0.0000 0.0000 0.0000 3.8145 2.5474 10.3344 -1.8068 3.1595 -0.9738 -0.0000 0.0000 -0.0000 -4.6656 6.4752 0.9475 -0.0000 0.0000 -0.0000 -34.6486 -2.7168 2.5309 -44.9684 -12.5801 -18.0054 -10.8723 5.3314 35.8735 15.1455 -4.9090 -1.3081 -0.0000 0.0000 -0.0000 32.9018 4.8808 3.2620 31.1303 12.0744 -16.9825 10.9407 0.9798 19.1760 -11.3599 1.9205 -0.6996 0.0000 0.0000 0.0000 -2.2623 11.9773 -16.1841 2.6845 17.2021 9.1002 7.0786 -0.4208 -4.1462 0.0000 0.0000 -0.0000
-1.5763 39.3165 -14.9435 -39.9137 -84.6081 33.2660 0.0000 0.0000 0.0000 4.3487 -2.9593 10.9782 -5.2879 -20.8266 11.2379 1.7829 -0.0425 -11.3249 0.0000 -0.0000 0.0000 0.0000 0.0000 0.0000 4.3018 2.6458 9.6697 -2.2205 3.3235 -0.7727 -0.0000 0.0000 -0.0000 -4.7099 6.5647 1.1153 -0.0000 0.0000 -0.0000 -34.7320 -2.7096 2.5333 -44.9069 -12.0511 -19.0278 -10.4307 5.4236 36.9242 15.5083 -4.9681 -1.3481 -0.0000 0.0000 -0.0000 32.9572 4.8888 3.2698 31.3020 12.4419 -16.6155 11.0052 1.4942 19.4151 -11.0153 2.0558 -0.6897 0.0000 0.0000 0.0000 0.8794 2.5764 -14.7388 0.8210 29.8376 2.1274 6.8916 -0.4537 -3.4679 0.0000 0.0000 -0.0000
-2.4671 39.2860 -14.7822 -36.6808 -83.7433 30.5158 0.0000 0.0000 0.0000 4.3724 -3.2926 12.2541 -5.0465 -21.3993 10.6679 2.6425 -0.0412 -11.3439 0.0000 -0.0000 0.0000 0.0000 0.0000 0.0000 4.6838 2.7199 8.8629 -2.4692 3.4161 -0.6562 -0.0000 0.0000 -0.0000 -4.9093 6.7355 1.3564 -0.0000 0.0000 -0.0000 -34.7995 -2.6765 2.5241 -44.6261 -11.3746 -20.1237 -9.9370 5.3806 38.4695 15.0602 -4.8645 -1.2951 -0.0000 0.0000 -0.0000 33.1711 4.9112 3.2966 31.6245 12.3114 -16.1393 11.0883 2.2572 19.6662 -10.9048 2.1596 -0.6895 0.0000 0.0000 0.0000 0.6305 0.9398 -14.2618 1.1364 33.4708 -1.8663 6.3152 -0.4385 -3.0810 0.0000 0.0000 -0.0000
-3.4585 39.1997 -14.5710 -34.0280 -82.7755 28.3096 0.0000 0.0000 0.0000 4.1178 -4.0169 13.3077 -4.7517 -20.9456 11.0178 4.5091 -0.0322 -11.6215 0.0000 -0.0000 0.0000 0.0000 0.0000 0.0000 4.7567 2.8237 7.7695 -2.2774 3.4390 -0.3931 -0.0000 0.0000 -0.0000 -5.1496 6.8039 1.6350 -0.0000 0.0000 -0.0000 -34.8568 -2.6511 2.5173 -44.2304 -10.7418 -21.3232 -9.3549 5.3462 40.2555 14.0378 -4.4888 -1.1608 -0.0000 0.0000 -0.0000 33.3824 4.9340 3.3234 32.1631 11.6318 -15.6691 11.1653 3.2042 19.6243 -10.9989 2.1245 -0.6844 0.0000 0.0000 0.0000 0.5367 0.5314 -14.0568 1.6624 34.9587 -2.0955 5.2162 -0.3461 -3.3221 0.0000 0.0000 -0.0000
-4.5342 39.1229 -14.3047 -31.4718 -81.7921 26.1306 0.0000 0.0000 0.0000 3.5042 -5.3217 14.5011 -4.3753 -19.6084 11.4900 6.5865 -0.0457 -11.2880 0.0000 -0.0000 0.0000 0.0000 0.0000 0.0000 4.4893 2.9654 6.4101 -1.7469 3.4217 0.0417 -0.0000 0.0000 -0.0000 -5.2503 6.8449 2.0560 -0.0000 0.0000 -0.0000 -34.8464 -2.6329 2.5092 -43.8196 -10.1103 -22.7244 -8.6087 5.3082 42.1485 13.0611 -4.0250 -1.0274 -0.0000 0.0000 -0.0000 33.5236 4.9536 3.3432 32.9862 10.4591 -15.2982 11.2130 4.1016 19.3395 -11.0413 2.0171 -0.6815 0.0000 0.0000 0.0000 0.3749 0.7340 -13.8837 2.4015 34.3462 -0.1900 4.0161 -0.2812 -2.8127 0.0000 0.0000 -0.0000
-5.6589 39.0583 -13.9686 -28.4409 -80.9472 23.2957 0.0000 0.0000 0.0000 2.1290 -8.0348 15.6394 -4.2700 -16.8532 12.7245 8.7354 -0.1216 -10.2413 0.0000 -0.0000 0.0000 0.0000 0.0000 0.0000 4.0118 3.1032 5.1479 -1.2752 3.4153 0.3882 -0.0000 0.0000 -0.0000 -5.1556 7.0536 2.6597 -0.0000 0.0000 -0.0000 -34.8056 -2.6023 2.4942 -43.3635 -9.3309 -24.3285 -7.6852 5.2655 44.1802 12.6120 -3.6150 -0.9491 -0.0000 0.0000 -0.0000 33.7712 4.9932 3.3800 33.9297 8.9206 -14.9939 11.2632 4.6361 19.0380 -10.9980 1.9809 -0.6824 0.0000 0.0000 0.0000 -0.1093 0.6166 -13.6464 3.4070 32.5490 2.2176 3.6580 -0.3438 -0.5519 0.0000 0.0000 -0.0000
-6.7652 38.9672 -13.5585 -24.3355 -80.0864 19.1136 0.0000 0.0000 0.0000 -0.3414 -12.5575 16.1871 -4.4315 -12.0834 15.9008 12.1096 -0.3010 -8.8340 0.0000 -0.0000 0.0000 0.0000 0.0000 0.0000 3.4267 3.1352 4.3846 -1.0060 3.3607 0.4380 -0.0000 0.0000 -0.0000 -4.9774 7.4469 3.2870 -0.0000 0.0000 -0.0000 -34.8600 -2.5652 2.4824 -42.7987 -8.4706 -25.9503 -6.7042 5.2216 46.1488 12.7232 -3.2213 -0.9176 -0.0000 0.0000 -0.0000 34.1972 5.0564 3.4420 34.8120 7.2631 -14.9771 11.3185 4.4819 19.0900 -10.9902 2.0014 -0.6832 0.0000 0.0000 0.0000 -0.9166 0.3660 -13.5002 4.3069 30.0148 5.0055 4.3710 -0.5300 2.1042 0.0000 0.0000 -0.0000
-7.7923 38.8762 -13.1027 -19.4729 -78.7419 13.9443 0.0000 0.0000 0.0000 -3.1257 -16.1748 15.8215 -4.4509 -8.3125 21.2001 16.5570 -0.8016 -6.0670 0.0000 -0.0000 0.0000 0.0000 0.0000 0.0000 2.7307 2.9563 4.1735 -0.7111 3.1102 0.2873 -0.0000 0.0000 -0.0000 -4.8355 7.8430 3.7386 -0.0000 0.0000 -0.0000 -34.9554 -2.5474 2.4810 -42.2440 -7.8705 -27.2568 -5.8781 5.1883 47.5875 13.0084 -2.8435 -0.8995 -0.0000 0.0000 -0.0000 34.5501 5.1048 3.4922 35.7779 5.7418 -15.5209 11.2357 3.6167 19.5876 -10.9074 1.9715 -0.6753 0.0000 0.0000 0.0000 -1.8641 0.4896 -13.1317 4.3485 27.0308 7.7527 5.8272 -0.7594 3.1610 0.0000 0.0000 -0.0000
-8.7031 38.7835 -12.6490 -15.1412 -76.7301 9.1403 0.0000 0.0000 0.0000 -5.2983 -17.8522 14.0256 -5.0921 -7.0962 28.7765 19.3612 -1.8631 -0.4143 0.0000 -0.0000 0.0000 0.0000 0.0000 0.0000 1.9808 2.6055 4.5345 -0.2731 2.6789 0.0366 -0.0000 0.0000 -0.0000 -4.7621 8.0552 3.9444 -0.0000 0.0000 -0.0000 -34.8491 -2.5551 2.4776 -41.9294 -7.8499 -27.8831 -5.4404 5.1749 48.1712 12.9922 -2.6372 -0.8768 -0.0000 0.0000 -0.0000 34.6127 5.1129 3.5010 37.0477 4.4440 -16.5295 10.9017 2.4549 20.1624 -10.5889 1.8973 -0.6488 0.0000 0.0000 0.0000 -2.8622 0.7459 -12.6253 4.1941 24.1409 10.8220 7.3781 -0.8641 1.8553 0.0000 0.0000 -0.0000
